<?xml version="1.0" encoding="UTF-8" standalone="no"?>
<svg
   xmlns:dc="http://purl.org/dc/elements/1.1/"
   xmlns:cc="http://creativecommons.org/ns#"
   xmlns:rdf="http://www.w3.org/1999/02/22-rdf-syntax-ns#"
   xmlns:svg="http://www.w3.org/2000/svg"
   xmlns="http://www.w3.org/2000/svg"
   xmlns:sodipodi="http://sodipodi.sourceforge.net/DTD/sodipodi-0.dtd"
   xmlns:inkscape="http://www.inkscape.org/namespaces/inkscape"
   width="484.86401"
   height="520"
   viewBox="0 0 484.86401 520"
   version="1.1"
   id="svg8"
   inkscape:version="1.0.1 (3bc2e813f5, 2020-09-07)"
   sodipodi:docname="bottom-left-cart.svg"
   inkscape:export-filename="C:\Users\xrist\Desktop\idea.png"
   inkscape:export-xdpi="25.399998"
   inkscape:export-ydpi="25.399998">
  <defs
     id="defs2" />
  <sodipodi:namedview
     id="base"
     pagecolor="#ffffff"
     bordercolor="#666666"
     borderopacity="1.0"
     inkscape:pageopacity="0.0"
     inkscape:pageshadow="2"
     inkscape:zoom="0.70710678"
     inkscape:cx="385.00492"
     inkscape:cy="133.22722"
     inkscape:document-units="px"
     inkscape:current-layer="layer1"
     inkscape:document-rotation="0"
     showgrid="false"
     inkscape:window-width="2560"
     inkscape:window-height="1377"
     inkscape:window-x="-8"
     inkscape:window-y="-8"
     inkscape:window-maximized="1"
     units="px"
     inkscape:pagecheckerboard="false"
     inkscape:showpageshadow="false"
     viewbox-height="520" />
  <metadata
     id="metadata5">
    <rdf:RDF>
      <cc:Work
         rdf:about="">
        <dc:format>image/svg+xml</dc:format>
        <dc:type
           rdf:resource="http://purl.org/dc/dcmitype/StillImage" />
        <dc:title></dc:title>
      </cc:Work>
    </rdf:RDF>
  </metadata>
  <g
     inkscape:label="Layer 1"
     inkscape:groupmode="layer"
     id="layer1">
    <text
       xml:space="preserve"
       style="font-size:25.4px;line-height:1.25;font-family:sans-serif;stroke-width:0.264583"
       x="10431.991"
       y="-1274.2334"
       id="text11948"><tspan
         sodipodi:role="line"
         id="tspan11946"
         x="10431.991"
         y="-1274.2334"
         style="stroke-width:0.264583" /></text>
    <text
       xml:space="preserve"
       style="font-style:normal;font-weight:normal;font-size:10.5833px;line-height:1.25;font-family:sans-serif;fill:#000000;fill-opacity:1;stroke:none;stroke-width:0.264583"
       x="11008.783"
       y="-71.966667"
       id="text26295"><tspan
         sodipodi:role="line"
         id="tspan26293"
         x="11008.783"
         y="-71.966667"
         style="stroke-width:0.264583" /></text>
    <text
       xml:space="preserve"
       style="font-size:25.4px;line-height:1.25;font-family:sans-serif;stroke-width:0.264583"
       x="4807.4302"
       y="-1197.3674"
       id="text5437"><tspan
         sodipodi:role="line"
         id="tspan5435"
         x="4807.4302"
         y="-1197.3674"
         style="stroke-width:0.264583" /></text>
    <g
       id="g4059"
       transform="matrix(1.0000574,0,0,1.0000574,118.48335,197.91528)">
      <path
         id="path959-3-23"
         style="fill:#983647;fill-opacity:1;stroke:#c83647;stroke-width:0.182451px;stroke-linecap:butt;stroke-linejoin:miter;stroke-opacity:1"
         d="m 35.275229,-197.81239 c -4.332723,-0.0259 -8.651176,1.61865 -12.904039,5.35372 -11.859099,13.85201 -6.026725,38.01741 3.46486,61.2284 -4.444961,-0.0939 -8.951757,0.10607 -13.133105,2.4261 -0.930616,9.1507 1.17245,20.70387 -9.0932023,25.61773 -0.7049719,-6.94357 -0.7972658,-13.39697 -6.9467433,-17.16391 -8.3067854,-1.10052 -25.2760954,-2.73828 -26.1069074,8.75832 -2.319447,1.62816 -3.166615,3.27176 -3.061721,4.83709 -9.134592,-20.63503 -20.054396,-37.89408 -33.071088,-39.87856 -4.283823,-0.65307 -8.794791,0.34781 -13.543755,3.42747 -12.989323,11.33304 -11.670338,34.0759 -6.393397,57.092043 -5.799996,-0.120917 -11.934453,-0.777989 -17.494621,2.307097 -0.93061,9.150697 1.17262,20.70429 -9.09345,25.618148 -0.67785,-6.67804 -0.80519,-12.895443 -6.2835,-16.712788 V 6.6261935 c 4.16041,6.8306665 8.30045,13.6705125 12.94827,20.1703905 3.70002,5.785058 6.825995,12.069972 10.973046,17.671027 L -43.267882,22.394599 C -27.917804,49.408506 -9.8735117,70.626757 8.3328372,55.754671 31.652986,30.407061 -3.7512383,-27.98936 -12.176603,-52.126468 c -0.30709,-0.853927 -0.620439,-1.734641 -0.935206,-2.622365 8.2493721,11.896316 14.9757283,24.786003 23.38649,36.548134 3.700017,5.785059 6.826244,12.0695558 10.973127,17.67061065 L 86.086863,-28.485127 C 101.68462,-9.5742231 118.13905,3.9261379 131.83201,-3.5288891 149.8748,27.544615 171.75138,56.318115 191.64063,38.447646 213.47214,12.355675 176.56217,-43.245976 166.44957,-67.458521 l 49.63083,-11.044724 c 1.45034,-19.430286 3.70878,-38.986745 5.44376,-58.461595 0.009,-9.43851 3.43598,-20.44059 0.80477,-28.83258 -9.30933,-0.41657 -1.01298,-9.95439 3.96672,-13.79335 8.19113,-9.75962 -9.8918,2.91969 -4.25436,-5.08334 3.37106,-10.07773 -4.83292,0.38528 -7.61216,3.58436 2.91218,-9.10071 -6.80989,0.11557 -8.63891,-5.44601 -3.70928,1.28569 -4.85937,5.983 -6.56055,-0.14745 -5.47713,-1.17971 -1.10001,12.53728 -3.91615,17.00778 0.65591,8.06945 -6.44955,8.039 -7.73808,1.88359 4.3434,-9.16613 -2.62253,-11.78908 -9.45337,-13.51738 -7.00899,-0.54926 -13.727,-4.18577 -22.13376,-1.52394 -4.68412,8.8467 -7.51135,20.58997 -19.22342,23.6315 2.2254,-6.95985 4.8239,-13.32979 0.60016,-18.11481 -7.36473,-2.53733 -22.66307,-7.11973 -28.22916,4.05401 -8.44348,3.53203 -4.88415,9.43692 -0.83924,13.02062 -4.30986,-0.45088 -8.768924,0.76129 -13.367764,4.06093 -4.303683,4.12702 -6.831918,9.53815 -8.036746,15.79127 -14.983074,-27.79382 -33.429004,-57.31485 -51.616911,-57.42275 z m -66.504014,93.99199 c 1.464936,1.84889 3.967386,3.46311 6.376624,4.637063 5.472044,3.249479 2.134609,5.440083 -2.052913,5.979493 -1.394506,-3.580186 -2.832739,-7.137506 -4.323711,-10.616556 z"
         inkscape:export-filename="D:\Projects\DIPA\staticDemo\imgs\CartLeft.png"
         inkscape:export-xdpi="25.4"
         inkscape:export-ydpi="25.4" />
      <path
         id="path998-9-3"
         style="fill:#c83647;fill-opacity:1;stroke-width:1.68349"
         inkscape:transform-center-x="34.276161"
         inkscape:transform-center-y="22.599966"
         d="M -118.3851,-7.7563837 V 186.0856 c 48.950815,107.64105 52.660095,115.06153 60.706104,124.63799 3.458765,4.11642 6.9056,7.86934 10.367707,11.34263 H 135.10903 c 13.61986,-6.26589 30.83267,-14.07891 56.50773,-25.58193 79.96507,-35.84492 91.54203,-40.68434 87.36878,-36.61156 -12.61698,12.30063 -15.87522,30.90911 -8.35986,47.74299 2.64765,5.91774 5.49433,10.62197 8.72553,14.4505 h 65.47994 c 8.73629,-9.57069 13.62052,-22.85158 12.15509,-33.8525 -3.41571,-25.63117 -23.45751,-44.04247 -46.21897,-42.45903 -6.64099,0.46339 -5.86851,-0.0234 15.34974,-9.63587 27.35113,-12.39359 34.67422,-18.10145 38.54865,-30.02706 5.09777,-15.7004 -1.6073,-32.57758 -16.10779,-40.54615 -13.31477,-7.31542 -1.75517,-11.55543 -166.1362,60.90847 C 64.979763,278.2247 33.083124,291.7909 27.474142,292.34709 23.589453,292.73212 16.739176,291.54473 12.249904,289.7092 1.0467928,285.12621 -15.332871,269.44209 -22.145513,256.77263 l -5.368818,-9.98427 137.912121,-62.25774 c 126.09025,-56.92623 138.48759,-62.7914 144.6031,-68.4537 15.65942,-14.49674 25.71871,-34.41762 27.08868,-53.63528 0.39204,-5.533545 -0.71374,-20.39061 -2.45931,-33.017267 -1.74782,-12.62649 -4.92061,-35.4595506 -7.04721,-50.737362 -2.1266,-15.27873 -6.69039,-48.095053 -10.14215,-72.923445 -3.45335,-24.828066 -7.32835,-52.559206 -8.61121,-61.621696 l -2.33388,-16.47689 -190.263547,84.658546 z"
         inkscape:export-filename="D:\Projects\DIPA\staticDemo\imgs\CartLeft.png"
         inkscape:export-xdpi="25.4"
         inkscape:export-ydpi="25.4" />
    </g>
  </g>
</svg>
