<?xml version="1.0" encoding="UTF-8" standalone="no"?>
<svg
   xmlns:dc="http://purl.org/dc/elements/1.1/"
   xmlns:cc="http://creativecommons.org/ns#"
   xmlns:rdf="http://www.w3.org/1999/02/22-rdf-syntax-ns#"
   xmlns:svg="http://www.w3.org/2000/svg"
   xmlns="http://www.w3.org/2000/svg"
   xmlns:sodipodi="http://sodipodi.sourceforge.net/DTD/sodipodi-0.dtd"
   xmlns:inkscape="http://www.inkscape.org/namespaces/inkscape"
   width="443"
   height="435"
   viewBox="0 0 443 435"
   version="1.1"
   id="svg8"
   inkscape:version="1.0.1 (3bc2e813f5, 2020-09-07)"
   sodipodi:docname="right-top-cart.svg"
   inkscape:export-filename="C:\Users\xrist\Desktop\idea.png"
   inkscape:export-xdpi="25.399998"
   inkscape:export-ydpi="25.399998">
  <defs
     id="defs2" />
  <sodipodi:namedview
     id="base"
     pagecolor="#ffffff"
     bordercolor="#666666"
     borderopacity="1.0"
     inkscape:pageopacity="0.0"
     inkscape:pageshadow="2"
     inkscape:zoom="0.5"
     inkscape:cx="281.15713"
     inkscape:cy="25.046802"
     inkscape:document-units="px"
     inkscape:current-layer="layer1"
     inkscape:document-rotation="0"
     showgrid="false"
     inkscape:window-width="1267"
     inkscape:window-height="1198"
     inkscape:window-x="182"
     inkscape:window-y="145"
     inkscape:window-maximized="0"
     units="px"
     inkscape:pagecheckerboard="false"
     inkscape:showpageshadow="false"
     viewbox-height="520" />
  <metadata
     id="metadata5">
    <rdf:RDF>
      <cc:Work
         rdf:about="">
        <dc:format>image/svg+xml</dc:format>
        <dc:type
           rdf:resource="http://purl.org/dc/dcmitype/StillImage" />
        <dc:title></dc:title>
      </cc:Work>
    </rdf:RDF>
  </metadata>
  <g
     inkscape:label="Layer 1"
     inkscape:groupmode="layer"
     id="layer1">
    <text
       xml:space="preserve"
       style="font-size:25.4px;line-height:1.25;font-family:sans-serif;stroke-width:0.264583"
       x="10431.991"
       y="-1274.2334"
       id="text11948"><tspan
         sodipodi:role="line"
         id="tspan11946"
         x="10431.991"
         y="-1274.2334"
         style="stroke-width:0.264583" /></text>
    <text
       xml:space="preserve"
       style="font-style:normal;font-weight:normal;font-size:10.5833px;line-height:1.25;font-family:sans-serif;fill:#000000;fill-opacity:1;stroke:none;stroke-width:0.264583"
       x="11008.783"
       y="-71.966667"
       id="text26295"><tspan
         sodipodi:role="line"
         id="tspan26293"
         x="11008.783"
         y="-71.966667"
         style="stroke-width:0.264583" /></text>
    <text
       xml:space="preserve"
       style="font-size:25.4px;line-height:1.25;font-family:sans-serif;stroke-width:0.264583"
       x="4807.4302"
       y="-1197.3674"
       id="text5437"><tspan
         sodipodi:role="line"
         id="tspan5435"
         x="4807.4302"
         y="-1197.3674"
         style="stroke-width:0.264583" /></text>
    <g
       id="g4083"
       transform="matrix(1.0033189,0,0,1.0039019,-1155.4002,376.43405)">
      <path
         id="path930-6-6-5"
         style="fill:#983647;fill-opacity:1;stroke:#c83647;stroke-width:0.167225px;stroke-linecap:butt;stroke-linejoin:miter;stroke-opacity:1"
         d="m 1333.9543,-374.88516 c 1.2027,8.18736 3.9723,17.02642 7.4072,25.79969 -0.01,0 -0.021,0 -0.032,0 -6.9311,1.60352 -15.2202,0.42044 -21.7759,5.24793 0.2447,9.11988 3.774,20.21621 -5.674,26.36232 -0.015,-0.0209 -0.033,-0.0422 -0.049,-0.063 -1.5635,-6.71728 -2.4936,-13.021 -9.0006,-15.93806 -4.0067,-0.014 -10.0049,0.10747 -15.0787,1.50976 -3.1279,0.43628 -6.3042,1.85501 -9.5199,4.45024 -8.69,9.23572 -8.7393,23.94696 -5.1786,39.73167 -2.2317,0.37642 -5.168,4.17696 -8.2551,1.32525 -2.2203,1.74529 -1.8445,4.85401 -3.9141,3.78223 -16.3535,-29.16762 -36.4324,-56.85547 -55.1331,-40.43185 -14.4847,16.91881 -0.1785,50.61322 12.4928,76.66482 -0.993,1.64346 -2.4006,3.13501 -4.3722,4.41163 -1.5756,-6.74858 -2.4852,-13.09201 -9.0195,-16.02118 -8.3201,-0.0299 -25.2396,0.51107 -24.5986,11.93842 -6.1297,5.59917 0.3678,9.70554 6.0965,11.63733 8.4206,3.63688 -1.7197,7.43691 -6.6836,6.51576 3.517,4.07238 -1.7917,9.4886 3.5343,13.72215 8.7303,4.7022 12.98,14.23646 19.6465,21.25534 9.9383,10.86781 18.3603,23.02888 28.3736,33.80039 4.3784,5.22764 8.2549,11.02001 13.0497,16.00958 l 74.5159,-44.1857 c 17.0919,25.97812 37.1412,48.38422 54.1574,31.39573 13.9435,-18.36686 -0.9968,-48.91931 -14.0625,-72.49548 l 37.7711,-22.39692 c 16.1537,19.30734 33.2208,31.94071 46.4444,17.47315 17.7835,-26.08326 -22.0763,-74.34167 -32.9213,-95.11288 -6.9702,-13.04169 -15.7525,-30.9433 -25.4372,-46.3905 z"
         inkscape:export-filename="D:\Projects\DIPA\staticDemo\imgs\background.png"
         inkscape:export-xdpi="25.4"
         inkscape:export-ydpi="25.4" />
      <path
         id="path1317-2-9-4"
         style="fill:#c83647;fill-opacity:1;stroke-width:1.26866"
         inkscape:transform-center-x="1.1389138"
         inkscape:transform-center-y="-5.297115"
         d="m 1464.2354,-374.88532 h -59.8676 c 0.8293,1.33975 1.6911,2.69748 2.6174,4.09433 l 6.7586,10.19515 -131.0805,89.3542 -131.0851,89.35544 10.1992,7.48646 c 5.6082,4.11755 22.7893,16.68548 38.1781,27.9274 15.3896,11.24091 35.73,26.09956 45.1993,33.01851 9.4688,6.91862 23.6224,17.255045 31.4518,22.966811 7.8303,5.710451 17.413,11.830561 21.2947,13.601854 13.4846,6.14644 30.8235,7.057661 46.6863,2.450565 6.1957,-1.79896 14.9724,-7.49367 102.3983,-66.41091 l 95.6185,-64.44342 4.6399,7.03645 c 5.8876,8.92847 10.0843,25.00284 8.8138,33.75547 -0.5099,3.50696 -2.3748,8.26983 -4.1458,10.58442 -2.5573,3.34199 -24.1108,18.55056 -104.6969,73.883229 -112.7961,77.4475832 -105.4408,71.6887475 -105.6914,82.7729731 -0.2718,12.0718489 8.4934,22.4679239 21.058,24.9750079 9.5446,1.902789 16.2407,-0.642989 35.2352,-13.406627 14.7341,-9.9024072 15.3631,-10.2127965 12.4668,-6.1848066 -9.9236,13.8074076 -5.3141,33.1918626 10.6306,44.7029786 7.595,5.482581 20.1299,7.063382 30.7484,3.876851 v 0 c 1.8118,-0.540738 6.5251,-3.398572 10.4777,-6.343157 8.5697,-6.387092 12.2835,-12.48804 13.3827,-21.980283 0.9042,-7.804478 -1.472,-14.68366 -7.9331,-23.0549871 -8.4208,-10.8920677 -22.2295,-15.6231169 -35.4284,-12.1374649 -4.3688,1.1513462 3.3975,-4.399679 58.6688,-41.858167 48.0176,-32.555845 62.9918,-42.296172 60.8307,-39.567685 -4.3769,5.525089 -6.3028,19.785849 -3.5981,26.63892 3.0308,7.677038 12.1101,17.683996 19.0682,21.015132 8.2992,3.975112 17.6442,3.817769 25.9813,0.837537 v -62.486181 c -6.7364,-2.51802 -14.0055,-2.88609 -20.5673,-0.1614 -4.1085,1.70592 -3.5583,-1.0259 0.7968,-4.03866 4.7881,-3.29021 14.6607,-15.20485 19.7705,-23.63865 v -79.57518 c -5.6453,-9.08797 -20.3541,-28.41832 -71.7522,-95.83955 l -48.4882,-63.60612 z"
         inkscape:export-filename="D:\Projects\DIPA\staticDemo\imgs\background.png"
         inkscape:export-xdpi="25.4"
         inkscape:export-ydpi="25.4" />
    </g>
  </g>
</svg>
