<?xml version="1.0" encoding="UTF-8" standalone="no"?>
<svg
   xmlns:dc="http://purl.org/dc/elements/1.1/"
   xmlns:cc="http://creativecommons.org/ns#"
   xmlns:rdf="http://www.w3.org/1999/02/22-rdf-syntax-ns#"
   xmlns:svg="http://www.w3.org/2000/svg"
   xmlns="http://www.w3.org/2000/svg"
   xmlns:sodipodi="http://sodipodi.sourceforge.net/DTD/sodipodi-0.dtd"
   xmlns:inkscape="http://www.inkscape.org/namespaces/inkscape"
   version="1.1"
   id="Layer_1"
   x="0px"
   y="0px"
   viewBox="0 0 100.353 100.352"
   style="enable-background:new 0 0 100.353 100.352;"
   xml:space="preserve"
   sodipodi:docname="backIcon.svg"
   inkscape:version="1.0.2-2 (e86c870879, 2021-01-15)"><metadata
   id="metadata13"><rdf:RDF><cc:Work
       rdf:about=""><dc:format>image/svg+xml</dc:format><dc:type
         rdf:resource="http://purl.org/dc/dcmitype/StillImage" /></cc:Work></rdf:RDF></metadata><defs
   id="defs11" /><sodipodi:namedview
   pagecolor="#ffffff"
   bordercolor="#666666"
   borderopacity="1"
   objecttolerance="10"
   gridtolerance="10"
   guidetolerance="10"
   inkscape:pageopacity="0"
   inkscape:pageshadow="2"
   inkscape:window-width="2560"
   inkscape:window-height="1377"
   id="namedview9"
   showgrid="false"
   inkscape:zoom="14.205271"
   inkscape:cx="61.633706"
   inkscape:cy="30.152236"
   inkscape:window-x="-8"
   inkscape:window-y="-8"
   inkscape:window-maximized="1"
   inkscape:current-layer="g6"
   inkscape:document-rotation="0" />
<g
   id="g6">
	
	
<path
   style="fill:#c83647;stroke-width:0.297077;fill-opacity:1"
   d="m 74.375132,63.682233 c -1.201246,-2.264366 -2.590788,-3.868639 -4.580807,-5.288688 -3.75544,-2.679827 -7.805984,-3.868964 -14.365071,-4.217223 l -3.639185,-0.193224 v 4.501989 c 0,4.09436 -0.04707,4.500849 -0.519884,4.489388 -0.845319,-0.0205 -26.358687,-12.942374 -26.439423,-13.390909 -0.04064,-0.225797 0.02621,-0.561719 0.148538,-0.746493 0.289787,-0.437677 25.778176,-13.18102 26.363802,-13.18102 0.377178,0 0.446967,0.666897 0.446967,4.271232 0,3.062589 0.105082,4.354185 0.371346,4.564378 0.204239,0.161231 1.307136,0.316775 2.45088,0.345655 6.508782,0.164349 12.506005,2.195354 16.051893,5.436095 3.131903,2.862385 4.543801,6.037717 4.807171,10.811246 0.208851,3.785367 -0.09019,4.493966 -1.096227,2.597574 z"
   id="path846" /></g>
</svg>
