<?xml version="1.0" encoding="UTF-8" standalone="no"?>
<svg
   xmlns:dc="http://purl.org/dc/elements/1.1/"
   xmlns:cc="http://creativecommons.org/ns#"
   xmlns:rdf="http://www.w3.org/1999/02/22-rdf-syntax-ns#"
   xmlns:svg="http://www.w3.org/2000/svg"
   xmlns="http://www.w3.org/2000/svg"
   xmlns:sodipodi="http://sodipodi.sourceforge.net/DTD/sodipodi-0.dtd"
   xmlns:inkscape="http://www.inkscape.org/namespaces/inkscape"
   version="1.1"
   id="Layer_1"
   x="0px"
   y="0px"
   viewBox="0 0 100.353 100.352"
   style="enable-background:new 0 0 100.353 100.352;"
   xml:space="preserve"
   sodipodi:docname="locationIcon.svg"
   inkscape:version="1.0.1 (3bc2e813f5, 2020-09-07)"><metadata
   id="metadata13"><rdf:RDF><cc:Work
       rdf:about=""><dc:format>image/svg+xml</dc:format><dc:type
         rdf:resource="http://purl.org/dc/dcmitype/StillImage" /></cc:Work></rdf:RDF></metadata><defs
   id="defs11" /><sodipodi:namedview
   pagecolor="#ffffff"
   bordercolor="#666666"
   borderopacity="1"
   objecttolerance="10"
   gridtolerance="10"
   guidetolerance="10"
   inkscape:pageopacity="0"
   inkscape:pageshadow="2"
   inkscape:window-width="2560"
   inkscape:window-height="1377"
   id="namedview9"
   showgrid="false"
   inkscape:zoom="14.205271"
   inkscape:cx="54.64936"
   inkscape:cy="57.849387"
   inkscape:window-x="-8"
   inkscape:window-y="-8"
   inkscape:window-maximized="1"
   inkscape:current-layer="g6" />
<g
   id="g6">
	<path
   d="M 58.23,69.992 73.223,45.884 c 0.049,-0.078 0.09,-0.16 0.122,-0.245 2.589,-4.222 3.956,-9.045 3.956,-13.969 0,-14.772 -12.018,-26.79 -26.79,-26.79 -14.772,0 -26.791,12.018 -26.791,26.79 0,4.925 1.369,9.75 3.96,13.975 0.03,0.074 0.065,0.146 0.107,0.216 l 14.455,24.191 c -11.221,1.586 -18.6,6.2 -18.6,11.797 0,6.935 11.785,12.366 26.829,12.366 15.044,0 26.829,-5.432 26.829,-12.366 0.001,-5.623 -7.722,-10.34 -19.07,-11.857 z m -7.758,21.223 c -14.043,0 -23.829,-4.937 -23.829,-9.366 0,-4.02 7.37,-7.808 17.283,-8.981 l 4.87,8.151 c 0.269,0.449 0.751,0.726 1.274,0.73 h 0.013 c 0.518,0 1,-0.268 1.274,-0.708 l 5.12,-8.232 c 10.071,1.091 17.823,4.975 17.823,9.04 0.001,4.43 -9.785,9.366 -23.828,9.366 z"
   id="path2"
   sodipodi:nodetypes="cccssscccssccsscccscccs"
   style="fill:#983647;fill-opacity:1" />
	
<path
   d="m 60.213,31.67 c 0,-5.371 -4.37,-9.741 -9.741,-9.741 -5.371,0 -9.741,4.37 -9.741,9.741 0,5.371 4.37,9.741 9.741,9.741 5.371,0 9.741,-4.37 9.741,-9.741 z"
   id="path4"
   style="fill:#ffffff"
   sodipodi:nodetypes="sssss" /></g>
</svg>
