<?xml version="1.0" encoding="UTF-8" standalone="no"?>
<svg
   xmlns:dc="http://purl.org/dc/elements/1.1/"
   xmlns:cc="http://creativecommons.org/ns#"
   xmlns:rdf="http://www.w3.org/1999/02/22-rdf-syntax-ns#"
   xmlns:svg="http://www.w3.org/2000/svg"
   xmlns="http://www.w3.org/2000/svg"
   xmlns:sodipodi="http://sodipodi.sourceforge.net/DTD/sodipodi-0.dtd"
   xmlns:inkscape="http://www.inkscape.org/namespaces/inkscape"
   width="520"
   height="120"
   viewBox="0 0 520 120"
   version="1.1"
   id="svg8"
   inkscape:version="1.0.1 (3bc2e813f5, 2020-09-07)"
   sodipodi:docname="logo.svg"
   inkscape:export-filename="C:\Users\xrist\Desktop\idea.png"
   inkscape:export-xdpi="25.399998"
   inkscape:export-ydpi="25.399998">
  <defs
     id="defs2" />
  <sodipodi:namedview
     id="base"
     pagecolor="#ffffff"
     bordercolor="#666666"
     borderopacity="1.0"
     inkscape:pageopacity="0.0"
     inkscape:pageshadow="2"
     inkscape:zoom="0.5"
     inkscape:cx="-91.15867"
     inkscape:cy="-50.938195"
     inkscape:document-units="px"
     inkscape:current-layer="layer1"
     inkscape:document-rotation="0"
     showgrid="false"
     inkscape:window-width="1267"
     inkscape:window-height="1198"
     inkscape:window-x="182"
     inkscape:window-y="145"
     inkscape:window-maximized="0"
     units="px"
     inkscape:pagecheckerboard="false"
     inkscape:showpageshadow="false"
     viewbox-height="520" />
  <metadata
     id="metadata5">
    <rdf:RDF>
      <cc:Work
         rdf:about="">
        <dc:format>image/svg+xml</dc:format>
        <dc:type
           rdf:resource="http://purl.org/dc/dcmitype/StillImage" />
        <dc:title></dc:title>
      </cc:Work>
    </rdf:RDF>
  </metadata>
  <g
     inkscape:label="Layer 1"
     inkscape:groupmode="layer"
     id="layer1">
    <g
       id="g29"
       transform="translate(429.4562,-416.61569)">
      <text
         xml:space="preserve"
         style="font-style:normal;font-variant:normal;font-weight:bold;font-stretch:normal;font-size:88.4854px;line-height:1.25;font-family:'Segoe Script';-inkscape-font-specification:'Segoe Script Bold';fill:#c83647;fill-opacity:1;stroke:none;stroke-width:0.921719"
         x="-471.01251"
         y="453.01968"
         id="text842-9"
         inkscape:export-filename="D:\Projects\DIPA\staticDemo\imgs\logo.png"
         inkscape:export-xdpi="25.399998"
         inkscape:export-ydpi="25.399998"
         transform="scale(0.92466488,1.0814729)"><tspan
           sodipodi:role="line"
           id="tspan840-5"
           x="-471.01251"
           y="453.01968"
           style="font-style:normal;font-variant:normal;font-weight:bold;font-stretch:normal;font-size:88.4854px;font-family:'Segoe Script';-inkscape-font-specification:'Segoe Script Bold';fill:#c83647;fill-opacity:1;stroke-width:0.921719">Εmporium</tspan></text>
      <path
         id="path1126-6"
         style="fill:#c83647;fill-opacity:1;stroke-width:0.232307"
         inkscape:transform-center-x="1.1571509"
         inkscape:transform-center-y="0.89235519"
         d="m 75.887646,447.0867 -24.27681,12.63399 -24.27622,12.6333 -0.98962,-2.1649 c -1.82828,-4.00097 -3.53952,-5.94668 -6.58607,-7.48833 -0.043,-0.0211 -0.08,-0.0269 -0.12156,-0.0468 l 1.56416,18.65217 5.65595,14.55631 c 8.42833,21.69193 8.44474,21.73195 9.58076,23.31338 3.1607,4.39966 6.22856,6.27434 10.69087,6.53226 1.65109,0.096 4.64401,-0.36382 5.60732,-0.85999 0.81324,-0.4152 1.27201,-0.22726 0.67688,0.28062 -2.66675,2.27583 -2.16128,7.94435 0.9317,10.44662 3.37873,2.73351 8.66177,-0.2592 8.87138,-5.02584 0.066,-1.49623 -0.70486,-4.02729 -1.61886,-5.31558 -0.81594,-1.14986 -3.13319,-2.28812 -4.32864,-2.12616 -0.59031,0.0796 2.11225,-1.41105 10.97843,-6.05692 10.20322,-5.34929 11.68039,-6.07155 11.14792,-5.46374 -1.60988,1.83572 -2.0256,4.61276 -1.06669,7.12486 0.7379,1.92898 1.58476,3.02711 2.84065,3.67494 1.52742,0.78802 2.75569,0.79505 4.42537,0.0246 0.76993,-0.3554 1.58908,-0.84595 1.81949,-1.09158 v 0 c 1.35305,-1.43761 2.14127,-3.68103 1.93375,-5.50294 -0.43585,-3.82508 -2.99313,-6.57263 -5.89739,-6.33636 -0.84736,0.069 -0.7488,0 1.95855,-1.43797 3.48989,-1.84964 4.42429,-2.70132 4.91867,-4.4811 0.65046,-2.343 -0.20511,-4.86166 -2.05531,-6.05083 -1.69893,-1.0917 -0.22393,-1.72443 -21.19825,9.08964 -14.98509,7.72588 -19.05499,9.75047 -19.77068,9.83344 -0.49567,0.0573 -1.36972,-0.11983 -1.94253,-0.39378 -1.42947,-0.68387 -3.51941,-3.02442 -4.38869,-4.91513 l -0.68506,-1.49004 17.59699,-9.29104 c 16.08861,-8.4953 17.67046,-9.37061 18.45076,-10.21563 1.9981,-2.16337 3.28158,-5.13619 3.45638,-8.00415 0.05,-0.82571 -0.091,-3.04292 -0.31376,-4.92731 -0.22303,-1.88428 -0.62785,-5.29172 -0.89919,-7.57176 -0.27135,-2.28005 -0.85367,-7.1774 -1.29409,-10.88265 -0.44064,-3.70514 -0.93512,-7.84361 -1.0988,-9.19602 z"
         inkscape:export-filename="D:\Projects\DIPA\staticDemo\imgs\logo.png"
         inkscape:export-xdpi="25.399998"
         inkscape:export-ydpi="25.399998" />
    </g>
    <text
       xml:space="preserve"
       style="font-size:25.4px;line-height:1.25;font-family:sans-serif;stroke-width:0.264583"
       x="10431.991"
       y="-1274.2334"
       id="text11948"><tspan
         sodipodi:role="line"
         id="tspan11946"
         x="10431.991"
         y="-1274.2334"
         style="stroke-width:0.264583" /></text>
    <text
       xml:space="preserve"
       style="font-style:normal;font-weight:normal;font-size:10.5833px;line-height:1.25;font-family:sans-serif;fill:#000000;fill-opacity:1;stroke:none;stroke-width:0.264583"
       x="11008.783"
       y="-71.966667"
       id="text26295"><tspan
         sodipodi:role="line"
         id="tspan26293"
         x="11008.783"
         y="-71.966667"
         style="stroke-width:0.264583" /></text>
    <text
       xml:space="preserve"
       style="font-size:25.4px;line-height:1.25;font-family:sans-serif;stroke-width:0.264583"
       x="4807.4302"
       y="-1197.3674"
       id="text5437"><tspan
         sodipodi:role="line"
         id="tspan5435"
         x="4807.4302"
         y="-1197.3674"
         style="stroke-width:0.264583" /></text>
  </g>
</svg>
