<?xml version="1.0" encoding="UTF-8" standalone="no"?>
<svg
   xmlns:dc="http://purl.org/dc/elements/1.1/"
   xmlns:cc="http://creativecommons.org/ns#"
   xmlns:rdf="http://www.w3.org/1999/02/22-rdf-syntax-ns#"
   xmlns:svg="http://www.w3.org/2000/svg"
   xmlns="http://www.w3.org/2000/svg"
   xmlns:sodipodi="http://sodipodi.sourceforge.net/DTD/sodipodi-0.dtd"
   xmlns:inkscape="http://www.inkscape.org/namespaces/inkscape"
   width="120"
   height="127"
   viewBox="0 0 120 127"
   version="1.1"
   id="svg8"
   inkscape:version="1.0.1 (3bc2e813f5, 2020-09-07)"
   sodipodi:docname="shopping-cart.svg"
   inkscape:export-filename="C:\Users\xrist\Desktop\idea.png"
   inkscape:export-xdpi="25.399998"
   inkscape:export-ydpi="25.399998">
  <defs
     id="defs2" />
  <sodipodi:namedview
     id="base"
     pagecolor="#ffffff"
     bordercolor="#666666"
     borderopacity="1.0"
     inkscape:pageopacity="0.0"
     inkscape:pageshadow="2"
     inkscape:zoom="0.5"
     inkscape:cx="245.15713"
     inkscape:cy="25.046802"
     inkscape:document-units="px"
     inkscape:current-layer="layer1"
     inkscape:document-rotation="0"
     showgrid="false"
     inkscape:window-width="1267"
     inkscape:window-height="1198"
     inkscape:window-x="182"
     inkscape:window-y="145"
     inkscape:window-maximized="0"
     units="px"
     inkscape:pagecheckerboard="false"
     inkscape:showpageshadow="false"
     viewbox-height="520" />
  <metadata
     id="metadata5">
    <rdf:RDF>
      <cc:Work
         rdf:about="">
        <dc:format>image/svg+xml</dc:format>
        <dc:type
           rdf:resource="http://purl.org/dc/dcmitype/StillImage" />
        <dc:title></dc:title>
      </cc:Work>
    </rdf:RDF>
  </metadata>
  <g
     inkscape:label="Layer 1"
     inkscape:groupmode="layer"
     id="layer1">
    <text
       xml:space="preserve"
       style="font-size:25.4px;line-height:1.25;font-family:sans-serif;stroke-width:0.264583"
       x="10431.991"
       y="-1274.2334"
       id="text11948"><tspan
         sodipodi:role="line"
         id="tspan11946"
         x="10431.991"
         y="-1274.2334"
         style="stroke-width:0.264583" /></text>
    <text
       xml:space="preserve"
       style="font-style:normal;font-weight:normal;font-size:10.5833px;line-height:1.25;font-family:sans-serif;fill:#000000;fill-opacity:1;stroke:none;stroke-width:0.264583"
       x="11008.783"
       y="-71.966667"
       id="text26295"><tspan
         sodipodi:role="line"
         id="tspan26293"
         x="11008.783"
         y="-71.966667"
         style="stroke-width:0.264583" /></text>
    <text
       xml:space="preserve"
       style="font-size:25.4px;line-height:1.25;font-family:sans-serif;stroke-width:0.264583"
       x="4807.4302"
       y="-1197.3674"
       id="text5437"><tspan
         sodipodi:role="line"
         id="tspan5435"
         x="4807.4302"
         y="-1197.3674"
         style="stroke-width:0.264583" /></text>
    <path
       style="fill:#c83647;fill-opacity:1;stroke-width:0.352653"
       d="m 94.74164,126.74558 c 2.84925,-0.9358 5.3143,-3.28381 6.04717,-5.75958 1.53822,-5.19775 -0.71693,-10.43733 -5.2005,-12.08312 -1.30841,-0.48008 -1.11992,-0.50678 3.75562,-0.53042 6.28465,-0.0294 8.17164,-0.49522 9.93108,-2.44583 2.31589,-2.56824 2.47752,-6.372275 0.3882,-9.138905 -1.91825,-2.53998 0.65284,-2.36136 -36.94521,-2.56804 -26.86173,-0.14773 -34.11504,-0.28286 -35.23423,-0.65661 -0.77514,-0.25891 -1.98265,-1.07281 -2.68332,-1.80855 -1.74853,-1.83629 -3.53713,-6.24073 -3.75572,-9.24871 l -0.17223,-2.36986 31.6693,-0.10697 c 28.95451,-0.0977 31.82391,-0.15961 33.47625,-0.71955 4.23078,-1.43354 7.8556,-4.38437 9.76,-7.94505 0.54816,-1.02532 1.60651,-3.96364 2.35165,-6.52978 0.74536,-2.56625 2.09121,-7.20731 2.99086,-10.31333 0.89965,-3.10613 2.83248,-9.77703 4.29497,-14.8243 1.4626,-5.04729 3.0924,-10.68593 3.62199,-12.5301 L 120,23.813715 l -43.58459,-0.0894 -43.58449,-0.0894 -0.24146,-3.44006 c -0.44589,-6.35777 -1.89381,-10.00126 -5.57233,-14.0227998 -3.18302,-3.47987 -6.88714,-5.03845 -13.97273,-5.87915003 -5.0262702,-0.5963 -8.2131702,-0.28707 -10.0238002,0.97299003 -4.04134,2.81234 -4.02435,8.7642098 0.0325,11.5885298 1.44917,1.00871 1.70049,1.0581 6.34212,1.24398 4.4174802,0.17695 4.9325002,0.26794 5.9884302,1.05779 0.63543,0.47525 1.58669,1.74425 2.11397,2.81979 l 0.95881,1.95556 0.19594,33.53124 c 0.19552,33.47408 0.19709,33.53628 0.99248,36.32665 2.21246,7.76316 5.7325,12.225605 12.26605,15.550705 2.41763,1.23032 7.16111,2.65041 8.88751,2.6605 1.45536,0.0126 2.03499,0.56162 0.85297,0.8136 -5.29625,1.12892 -7.78605,8.73835 -4.58834,14.02289 3.49349,5.77273 13.11797,5.47935 16.16212,-0.49269 0.95566,-1.87454 1.25082,-5.63759 0.62011,-7.90312 -0.56295,-2.02228 -3.38074,-5.03709 -5.26353,-5.6316 -0.92965,-0.29359 3.97127,-0.39204 19.90735,-0.40034 18.34071,-0.0126 20.96581,0.0526 19.82051,0.47431 -3.46203,1.27382 -5.67523,4.55605 -5.67838,8.42125 0,2.96889 0.63921,4.94556 2.14859,6.6191 1.83569,2.03561 3.67055,2.86843 6.61159,3.00114 1.35645,0.0609 2.86384,-0.0189 3.34948,-0.17894 z"
       id="path1077-5-9"
       inkscape:transform-center-x="0.11048434"
       inkscape:transform-center-y="0.70986974"
       sodipodi:nodetypes="cssssssssscssssssscccsssssssscssssssssssscssc" />
  </g>
</svg>
